HIERARCHY
ROOT Hips
{
	OFFSET 0.000000 0.000000 0.000000 
	CHANNELS 6 Xposition Yposition Zposition Yrotation Zrotation Xrotation 
	JOINT Lumbar
	{
		OFFSET 0.000000 0.000000 0.000000 
		CHANNELS 3 Zrotation Xrotation Yrotation
		JOINT Neck
		{
			OFFSET 0.000000 0.445665 0.000000 
			CHANNELS 3 Zrotation Xrotation Yrotation
			End Site
			{
				OFFSET 0.000000 0.227535 0.000000 
			}
		}
		JOINT RightShoulder
		{
			OFFSET 0.019635 0.377685 0.194865 
			CHANNELS 3 Zrotation Xrotation Yrotation
			JOINT RightElbow
			{
				OFFSET 0.000000 -0.243375 0.000000 
				CHANNELS 2 Zrotation Yrotation
				JOINT RightWrist
				{
					OFFSET 0.000000 -0.264825 0.000000 
					CHANNELS 2 Zrotation Xrotation
					End Site
					{
						OFFSET 0.006600 -0.176220 0.000990 
					}
				}
			}
		}
		JOINT LeftShoulder
		{
			OFFSET 0.019635 0.377685 -0.194865 
			CHANNELS 3 Zrotation Xrotation Yrotation
			JOINT LeftElbow
			{
				OFFSET 0.000000 -0.243375 0.000000 
				CHANNELS 2 Zrotation Yrotation
				JOINT LeftWrist
				{
					OFFSET 0.000000 -0.264825 0.000000 
					CHANNELS 2 Zrotation Xrotation
					End Site
					{
						OFFSET 0.006600 -0.176220 -0.000990 
					}
				}
			}
		}
	}
	JOINT RightHip
	{
		OFFSET 0.052140 -0.069960 0.075570 
		CHANNELS 3 Zrotation Xrotation Yrotation
		JOINT RightKnee
		{
			OFFSET 0.000000 -0.402270 0.000000 
			CHANNELS 1 Zrotation
			JOINT RightAnkle
			{
				OFFSET 0.000000 -0.404085 0.000000 
				CHANNELS 3 Zrotation Xrotation Yrotation
				End Site
				{
					OFFSET 0.204105 -0.089430 0.008415 
				}
			}
		}
	}
	JOINT LeftHip
	{
		OFFSET 0.052140 -0.069960 -0.075570 
		CHANNELS 3 Zrotation Xrotation Yrotation
		JOINT LeftKnee
		{
			OFFSET 0.000000 -0.402270 0.000000 
			CHANNELS 1 Zrotation
			JOINT LeftAnkle
			{
				OFFSET 0.000000 -0.404085 0.000000 
				CHANNELS 3 Zrotation Xrotation Yrotation
				End Site
				{
					OFFSET 0.204105 -0.089430 -0.008415 
				}
			}
		}
	}
}
MOTION
Frames: 19
Frame Time: 0.02
0.45865 0.08053 0.11132 26.47838 -15.46444 -7.48243 35.28634 2.85365 -3.2926 -8.33891 -6.29264 -0.83078 -18.17687 -35.27841 14.0384 47.24644 81.09959 -3.96517 -1.25307 8.05751 60.30729 -22.10793 66.53081 -79.41353 -11.06265 1.8132 20.8883 4.5845 -9.00575 -13.31614 -7.99392 -4.18746 -2.92996 36.0803 12.13816 4.60285 -28.5244 -10.13093 4.52707 3.2281
0.45698 0.08024 0.11766 26.52655 -15.26434 -7.35691 35.04665 3.07987 -3.54088 -8.16801 -6.38278 -0.83078 -16.06807 -38.20057 14.1499 44.87045 80.72669 -4.19352 -1.17278 18.46317 62.81526 -29.64179 63.25588 -79.68004 -11.42678 2.22761 20.95876 4.78552 -9.11482 -13.32758 -7.99989 -4.18244 -2.92607 36.80415 12.59595 4.73786 -29.54398 -10.32594 4.42728 3.18081
0.4553 0.08017 0.12358 26.47031 -15.05653 -7.17418 34.81811 3.28974 -3.74892 -7.99394 -6.49833 -0.83078 -13.45044 -41.21322 14.43272 42.25681 80.2538 -4.4325 -1.05869 30.41275 64.79184 -38.76089 59.06518 -80.028 -11.58586 2.78283 21.02746 4.91343 -9.20079 -13.33048 -8.0182 -4.17239 -2.91911 37.4955 13.02492 4.91956 -30.57067 -10.52803 4.31538 3.12689
0.45366 0.08002 0.1296 26.45506 -14.85972 -7.01337 34.59813 3.50542 -3.97369 -7.82055 -6.60391 -0.83078 -11.0085 -44.16907 14.65268 39.76865 79.84213 -4.65835 -0.96238 41.50295 66.91421 -46.8914 55.24744 -80.32438 -11.75613 3.28748 21.09765 5.06854 -9.27213 -13.33155 -8.03242 -4.16588 -2.91437 38.18178 13.45411 5.07888 -31.55638 -10.71642 4.21093 3.07659
0.45184 0.07977 0.13604 26.46889 -14.63378 -6.87087 34.32202 3.7289 -4.20436 -7.64717 -6.70229 -0.83078 -8.81586 -47.21517 14.77847 37.20837 79.37065 -4.91501 -0.85846 53.30017 69.45341 -56.16353 51.58384 -80.68463 -12.26388 3.73082 21.16728 5.25115 -9.44137 -13.35501 -8.04111 -4.15493 -2.90665 38.96093 13.93903 5.23586 -32.71096 -10.94967 4.09809 3.02366
0.4504 0.07977 0.14149 26.39692 -14.46559 -6.67723 34.16516 3.93242 -4.41422 -7.47467 -6.82151 -0.83078 -5.9584 -50.07713 15.1776 34.73525 78.99441 -5.11134 -0.75844 63.97443 70.99755 -63.43678 47.40349 -80.93004 -12.03192 4.32903 21.23634 5.35869 -9.40789 -13.33079 -8.06365 -4.15147 -2.90407 39.53443 14.30022 5.40968 -33.51008 -11.09154 4.00032 2.97492
0.44998 0.08043 0.14435 26.11057 -14.46027 -6.34399 34.3322 4.07784 -4.56653 -7.30042 -6.99695 -0.83078 -1.631 -52.5106 15.96994 32.64023 78.94298 -5.14268 -0.71433 71.17985 69.86988 -64.72427 41.88786 -80.84157 -9.70226 5.42186 21.30931 5.27224 -8.77571 -13.17301 -8.12477 -4.17269 -2.91835 39.5603 14.33002 5.64244 -33.34818 -10.97162 3.94194 2.93613
0.44994 0.08131 0.14621 25.74193 -14.51273 -5.96323 34.61915 4.20462 -4.70093 -7.12869 -7.19163 -0.83078 3.38682 -54.73361 17.08047 30.63099 78.98373 -5.11316 -0.66906 77.19153 67.76633 -63.95706 35.9127 -80.63394 -6.65571 6.64993 21.38052 5.11324 -7.94872 -12.96845 -8.19878 -4.20105 -2.93755 39.3771 14.23556 5.8877 -32.82376 -10.76077 3.89999 2.90233
0.44976 0.08208 0.14847 25.41235 -14.53733 -5.61203 34.8527 4.34452 -4.85021 -6.95918 -7.3746 -0.83078 8.25231 -56.98509 18.26929 28.52625 78.95687 -5.10896 -0.59956 83.74124 66.14303 -64.18034 30.2346 -80.47839 -4.00502 7.75001 21.44895 4.99014 -7.24137 -12.78819 -8.26456 -4.22416 -2.95314 39.28015 14.19572 6.11264 -32.44879 -10.59642 3.85393 2.86841
0.44945 0.08292 0.15093 25.07132 -14.56833 -5.22528 35.08195 4.46504 -4.9703 -6.77443 -7.57143 -0.83078 12.47519 -59.52727 18.56829 26.63559 79.03379 -5.11349 -0.63121 90.37609 64.34794 -64.22231 24.14391 -80.33406 -1.04741 9.13066 21.53258 4.8523 -6.40385 -12.59493 -8.34054 -4.25536 -2.97426 39.21837 14.16265 6.3998 -32.13604 -10.41043 3.79353 2.82536
0.4495 0.08366 0.15276 24.73701 -14.59998 -4.90199 35.34861 4.62074 -5.14661 -6.62317 -7.74304 -0.83078 18.16743 -61.40814 20.73722 24.34275 78.91944 -5.08704 -0.45511 96.51522 62.68377 -64.13011 18.82535 -80.13752 1.4335 9.96351 21.58401 4.72873 -5.78892 -12.41754 -8.39847 -4.27174 -2.98528 39.03513 14.08641 6.56107 -31.61096 -10.24788 3.76674 2.80241
0.45042 0.08403 0.15315 24.43271 -14.61776 -4.7661 35.68798 4.88631 -5.48945 -6.55507 -7.84511 -0.83078 27.97239 -61.54924 28.44135 20.74543 78.24144 -4.97302 0.31532 101.69102 61.63764 -64.18701 15.67242 -79.82202 2.46573 9.19694 21.54771 4.66344 -5.85916 -12.29761 -8.40091 -4.24304 -2.96542 38.5586 13.92107 6.36007 -30.55881 -10.17215 3.8317 2.83537
0.45169 0.0843 0.15295 24.1402 -14.63441 -4.69582 36.06083 5.18634 -5.88799 -6.52261 -7.91993 -0.83078 39.18712 -61.0233 37.90545 16.77329 77.37177 -4.83183 1.28872 106.37878 60.75567 -64.16798 13.33181 -79.45919 2.98535 7.8841 21.47878 4.615 -6.1561 -12.19497 -8.38513 -4.19964 -2.93558 37.9691 13.71692 6.03374 -29.3116 -10.12336 3.92946 2.88816
0.4528 0.08462 0.153 23.84843 -14.65278 -4.59555 36.41934 5.4655 -6.25718 -6.47911 -8.00422 -0.83078 49.60772 -60.78161 46.30125 13.08812 76.59742 -4.71568 2.15784 111.20925 59.79029 -64.1654 10.67579 -79.11917 3.70921 6.85547 21.42443 4.55869 -6.33423 -12.08299 -8.37929 -4.1646 -2.91153 37.4371 13.53069 5.77235 -28.17214 -10.06205 4.01029 2.93081
0.45392 0.08491 0.1531 23.52776 -14.66856 -4.49464 36.77914 5.76659 -6.64436 -6.41245 -8.10231 -0.83078 60.70353 -60.61957 55.94884 8.9159 75.78706 -4.54881 3.08605 116.33816 58.83011 -64.17099 7.77629 -78.76628 4.57562 5.67849 21.37162 4.5014 -6.57169 -11.9754 -8.36696 -4.12277 -2.8824 36.87085 13.33831 5.47834 -26.93669 -9.99785 4.1001 2.97828
0.45509 0.08525 0.15296 23.27147 -14.6881 -4.41088 37.14166 6.0297 -7.00555 -6.40429 -8.16392 -0.83078 70.71502 -60.12694 63.26857 5.66492 75.01061 -4.47565 3.92906 120.7384 57.90784 -64.16481 5.58282 -78.43463 5.01884 4.68068 21.30721 4.45024 -6.74258 -11.86367 -8.36356 -4.09141 -2.86135 36.35298 13.15187 5.22155 -25.86294 -9.94836 4.17898 3.02051
0.45633 0.08576 0.15229 23.18828 -14.72349 -4.36228 37.51136 6.18564 -7.29871 -6.53321 -8.13966 -0.83078 77.41079 -58.9631 64.92471 5.07747 74.32861 -4.72315 4.57883 123.30234 57.08147 -64.17041 5.14731 -78.13909 4.37468 4.2947 21.22462 4.41967 -6.66966 -11.73432 -8.39008 -4.0933 -2.86563 35.98749 12.98603 5.10434 -25.25607 -9.92366 4.21773 3.0419
0.4576 0.08633 0.15138 23.17034 -14.76151 -4.3283 37.88066 6.30104 -7.56083 -6.72268 -8.07787 -0.83078 82.95654 -57.4767 63.98708 5.42475 73.69715 -5.05665 5.12125 125.14405 56.28671 -64.16549 5.39647 -77.87403 3.32797 4.10937 21.13049 4.39368 -6.52369 -11.6009 -8.42602 -4.10611 -2.87826 35.67716 12.82937 5.02736 -24.82537 -9.91488 4.24454 3.05754
0.45883 0.08687 0.15058 23.12403 -14.79456 -4.2852 38.24428 6.4312 -7.82558 -6.89474 -8.02795 -0.83078 89.01269 -56.08665 63.40783 5.32497 73.07025 -5.31385 5.64942 127.28662 55.46185 -64.16718 5.32853 -77.6173 2.48959 3.8435 21.03769 4.36079 -6.4152 -11.47071 -8.45698 -4.11332 -2.88662 35.34862 12.67232 4.92826 -24.3341 -9.90552 4.27807 3.07685
